<svg xmlns="http://www.w3.org/2000/svg" width="181" height="41" viewBox="0 0 181 41" fill="none">
  <g clip-path="url(#clip0_561_7133)">
    <path d="M40.6015 20.5091C40.6015 28.8708 35.648 36.0638 28.5452 39.2572L21.8007 32.3947C21.5191 32.108 21.3611 31.7208 21.3611 31.3172V28.3854C21.3611 27.9628 21.7002 27.6206 22.1184 27.6206H28.6303L30.4121 28.4047C30.7339 28.5461 31.1106 28.4161 31.2794 28.1045L35.1448 20.993C35.2675 20.7674 35.3317 20.5144 35.3317 20.2572V18.5843C35.3317 18.3931 35.2541 18.2096 35.1178 18.0775L27.3069 10.2092C27.2426 10.1461 27.161 10.1002 27.0722 10.0791L19.4679 8.25392C19.2303 8.19693 19.0098 8.08267 18.8251 7.92078L18.3448 7.49969L15.9058 5.36589C15.8216 5.29225 15.691 5.29605 15.6083 5.37173C14.6666 6.2332 14.1561 6.94213 13.9098 7.88221C13.4989 9.35063 13.8511 10.6528 14.4307 11.4423C14.4666 11.492 14.5028 11.54 14.5404 11.5838L17.4491 14.5265C17.5912 14.6679 17.6687 14.8611 17.6687 15.0639L17.6708 18.4566C17.6708 18.6772 17.4068 18.7876 17.2523 18.6319L12.5115 13.8447C12.3836 13.7155 12.1761 13.7153 12.0479 13.8444L10.0965 15.8087C9.96805 15.9382 9.96805 16.148 10.0962 16.2777L16.8341 23.0815C17.61 23.865 18.0461 24.9278 18.0461 26.0359V32.795C18.0461 33.2479 18.2244 33.6825 18.5415 34.0027L24.9539 40.4798C23.7419 40.7665 22.4885 40.9445 21.2028 41L16.141 35.8887C15.4355 35.1763 15.039 34.2099 15.039 33.2024V26.208C15.039 25.8051 14.8805 25.4187 14.5986 25.1341L7.95996 18.4305C7.83205 18.3014 7.62427 18.3011 7.49636 18.4305L5.5314 20.4101C5.40291 20.5395 5.40291 20.7493 5.5314 20.8788L11.2469 26.6502C11.3869 26.7936 11.4665 26.9868 11.4665 27.1876V30.5718C11.4665 30.7918 11.2032 30.9023 11.0489 30.7465L3.48743 23.1184C3.36878 22.9988 3.16621 23.0833 3.16592 23.2525L3.15666 27.3044C3.15608 27.5587 3.25592 27.8024 3.43389 27.9824L15.8531 40.5248C6.53732 38.4217 -0.362336 29.8494 0.0147406 19.7178C0.401077 9.34098 8.6001 0.766026 18.8593 0.0503745C30.7229 -0.777198 40.6015 8.70014 40.6015 20.5088" fill="black"/>
  </g>
  <path fill-rule="evenodd" clip-rule="evenodd" d="M71.4324 13.8042C71.8534 14.2101 72.3581 14.4129 72.947 14.4129C73.536 14.4129 74.0324 14.2101 74.4363 13.8042C74.8399 13.3814 75.042 12.8657 75.042 12.257C75.042 11.6483 74.8402 11.1748 74.4363 10.786C74.0324 10.3801 73.536 10.1773 72.947 10.1773C72.3581 10.1773 71.8534 10.3801 71.4324 10.786C71.0289 11.1748 70.8267 11.6654 70.8267 12.257C70.8267 12.8486 71.0285 13.3814 71.4324 13.8042Z" fill="black"/>
  <path d="M74.7048 16.1072H71.164V30.3386H74.7048V16.1072Z" fill="black"/>
  <path fill-rule="evenodd" clip-rule="evenodd" d="M59.473 30.3385H63.1274V13.9655H68.8034V10.6857H53.797V13.9655H59.473V30.3385Z" fill="black"/>
  <path fill-rule="evenodd" clip-rule="evenodd" d="M77.5712 30.3384V16.2213H80.4875L80.7526 18.1124C81.177 17.42 81.7957 16.8605 82.6087 16.4342C83.4216 15.9902 84.3409 15.7682 85.366 15.7682C86.3912 15.7682 87.2133 15.9902 87.9382 16.4342C88.6628 16.8781 89.2194 17.5085 89.6087 18.3252C90.0151 17.5793 90.6338 16.9669 91.4647 16.4874C92.3131 16.0078 93.2765 15.7682 94.3546 15.7682C95.8041 15.7682 96.9615 16.2478 97.8278 17.2065C98.7116 18.1476 99.1535 19.4083 99.1535 20.9889V30.3381H95.5477V21.1489C95.5477 20.4562 95.3447 19.9058 94.9379 19.4975C94.5492 19.0711 94.0189 18.8583 93.3473 18.8583C92.4105 18.8583 91.6417 19.1335 91.0406 19.6838C90.4574 20.2342 90.1659 20.9357 90.1659 21.7881V30.3381H86.5601V21.1489C86.5601 20.4562 86.3571 19.9058 85.9502 19.4975C85.5616 19.0711 85.0313 18.8583 84.3597 18.8583C83.4226 18.8583 82.6629 19.1335 82.0797 19.6838C81.4964 20.2342 81.205 20.9357 81.205 21.7881V30.3381H77.5725L77.5712 30.3384Z" fill="black"/>
  <path fill-rule="evenodd" clip-rule="evenodd" d="M115.003 23.1827C114.985 21.6823 114.684 20.3757 114.1 19.2635C113.516 18.1338 112.711 17.2686 111.683 16.6685C110.657 16.0684 109.471 15.7682 108.125 15.7682C106.779 15.7682 105.54 16.086 104.46 16.7217C103.381 17.3397 102.531 18.2221 101.911 19.37C101.309 20.4997 101.008 21.8063 101.008 23.2891C101.008 24.772 101.318 25.9987 101.938 27.1288C102.557 28.241 103.425 29.1146 104.54 29.7504C105.673 30.3683 106.956 30.6773 108.391 30.6773C110.072 30.6773 111.488 30.2534 112.639 29.4064C113.461 28.7888 114.088 27.9959 114.522 27.0278L111.273 26.16C111.042 26.5962 110.718 26.9454 110.303 27.2086C109.789 27.5263 109.161 27.685 108.417 27.685C107.373 27.685 106.505 27.3495 105.815 26.6786C105.124 26.0081 104.708 25.1251 104.567 24.0307H115.003V23.183V23.1827ZM104.726 21.6203C104.956 20.7376 105.372 20.0492 105.974 19.5546C106.576 19.0425 107.293 18.7868 108.125 18.7868C108.957 18.7868 109.621 19.0341 110.17 19.5284C110.719 20.0226 111.09 20.7197 111.285 21.6203H104.726H104.726Z" fill="black"/>
  <path fill-rule="evenodd" clip-rule="evenodd" d="M122.64 30.677C120.597 30.677 119.025 30.2531 117.923 29.4057C117.159 28.818 116.64 28.0518 116.362 27.1073L119.682 26.2233C119.801 26.6676 120.041 27.0223 120.401 27.2871C120.898 27.6227 121.556 27.7902 122.373 27.7902C123.066 27.7902 123.599 27.6665 123.971 27.4196C124.344 27.1547 124.531 26.7929 124.531 26.334C124.531 26.0338 124.451 25.8043 124.291 25.6456C124.149 25.4691 123.981 25.3454 123.785 25.275C123.59 25.1867 123.199 25.0455 122.613 24.8511L120.828 24.2686C119.869 23.9684 119.069 23.6594 118.43 23.3417C117.809 23.0065 117.302 22.5738 116.912 22.0442C116.539 21.497 116.352 20.8171 116.352 20.0051C116.352 18.7164 116.831 17.6924 117.791 16.9333C118.75 16.1564 120.099 15.7682 121.841 15.7682C123.582 15.7682 124.922 16.2008 125.97 17.0657C126.779 17.709 127.332 18.5654 127.629 19.6358L124.445 20.4838C124.341 19.9133 124.086 19.48 123.679 19.1843C123.217 18.8312 122.604 18.6547 121.84 18.6547C121.236 18.6547 120.766 18.7696 120.428 18.999C120.09 19.2285 119.922 19.5462 119.922 19.9522C119.922 20.2346 120.011 20.4731 120.188 20.6672C120.384 20.8437 120.588 20.9761 120.801 21.0644C121.014 21.1527 121.387 21.2851 121.92 21.4616L123.545 22.0179C124.646 22.371 125.517 22.7241 126.156 23.0772C126.796 23.4125 127.284 23.8451 127.622 24.3747C127.977 24.8868 128.155 25.5577 128.155 26.3872C128.155 27.7288 127.666 28.7794 126.689 29.5385C125.712 30.2976 124.362 30.6773 122.639 30.6773" fill="black"/>
  <path fill-rule="evenodd" clip-rule="evenodd" d="M132.607 29.7238C133.719 30.3596 135.025 30.6773 136.524 30.6773C138.412 30.6773 139.965 30.1389 141.183 29.0621C141.94 28.3919 142.496 27.5783 142.851 26.6209L139.476 25.716C139.285 26.1649 139.016 26.5475 138.668 26.8639C138.104 27.3761 137.389 27.6318 136.524 27.6318C135.412 27.6318 134.513 27.2258 133.825 26.4138C133.136 25.6018 132.792 24.5071 132.792 23.1301C132.792 21.7531 133.128 20.7554 133.798 19.9788C134.469 19.1843 135.351 18.7871 136.445 18.7871C137.327 18.7871 138.068 19.0519 138.668 19.5816C139.092 19.9431 139.396 20.3923 139.583 20.9297L142.992 20.0155C142.834 19.5115 142.61 19.0402 142.321 18.6018C141.739 17.7015 140.945 17.0041 139.939 16.5098C138.933 16.0155 137.777 15.7682 136.472 15.7682C135.06 15.7682 133.798 16.0684 132.686 16.6685C131.592 17.2686 130.728 18.125 130.093 19.2372C129.475 20.3494 129.166 21.647 129.166 23.1301C129.166 24.6133 129.457 25.8754 130.04 27.023C130.639 28.1705 131.495 29.0708 132.607 29.7241" fill="black"/>
  <path fill-rule="evenodd" clip-rule="evenodd" d="M155.415 16.218L155.096 18.3366C154.689 17.5422 154.052 16.9155 153.184 16.4566C152.334 15.9977 151.369 15.7682 150.289 15.7682C149.05 15.7682 147.934 16.086 146.943 16.7217C145.969 17.3397 145.208 18.2133 144.659 19.3434C144.11 20.4556 143.836 21.7265 143.836 23.1564C143.836 24.5863 144.119 25.9283 144.686 27.0755C145.252 28.2056 146.031 29.088 147.023 29.7238C148.032 30.3596 149.165 30.6773 150.422 30.6773C151.378 30.6773 152.228 30.492 152.972 30.121C153.715 29.7504 154.3 29.2383 154.724 28.585V30.2534H158.336V16.2184H155.415V16.218ZM153.715 26.4401C153.06 27.2875 152.193 27.711 151.113 27.711C150.033 27.711 149.183 27.2959 148.51 26.4664C147.838 25.6187 147.501 24.5243 147.501 23.1824C147.501 21.8404 147.838 20.8165 148.51 20.0045C149.183 19.1746 150.06 18.7598 151.139 18.7598C152.219 18.7598 153.061 19.1658 153.716 19.9778C154.389 20.7902 154.725 21.8495 154.725 23.1557C154.725 24.462 154.389 25.5921 153.716 26.4398" fill="black"/>
  <path d="M164.406 10.6857H160.865V30.3385H164.406V10.6857Z" fill="black"/>
  <path fill-rule="evenodd" clip-rule="evenodd" d="M180.338 23.1828C180.32 21.6824 180.019 20.3758 179.435 19.2636C178.851 18.1339 178.046 17.2687 177.019 16.6686C175.992 16.0685 174.806 15.7683 173.46 15.7683C172.115 15.7683 170.876 16.086 169.796 16.7218C168.716 17.3397 167.866 18.2222 167.246 19.3701C166.645 20.4998 166.344 21.8064 166.344 23.2892C166.344 24.772 166.653 25.9988 167.273 27.1288C167.893 28.241 168.76 29.1147 169.875 29.7505C171.008 30.3684 172.292 30.6774 173.726 30.6774C175.408 30.6774 176.824 30.2535 177.975 29.4065C178.796 28.7889 179.424 27.996 179.857 27.0279L176.609 26.1601C176.377 26.5963 176.054 26.9455 175.638 27.2087C175.124 27.5264 174.496 27.6851 173.753 27.6851C172.708 27.6851 171.841 27.3495 171.15 26.6787C170.46 26.0082 170.044 25.1251 169.902 24.0308H180.338V23.1831V23.1828ZM170.061 21.6204C170.292 20.7377 170.707 20.0493 171.31 19.5547C171.911 19.0426 172.628 18.7869 173.46 18.7869C174.293 18.7869 174.956 19.0342 175.505 19.5284C176.054 20.0227 176.426 20.7198 176.62 21.6204H170.061H170.061Z" fill="black"/>
  <defs>
    <clipPath id="clip0_561_7133">
      <rect width="40.6015" height="41" rx="20.3008" fill="white"/>
    </clipPath>
  </defs>
<copyleaks-sidebar-popup xmlns="" id="copyleaks-sidebar-popup-container" class="no-print"/></svg>